<svg width="10" height="14" viewBox="0 0 10 14" fill="none" xmlns="http://www.w3.org/2000/svg">
<path fill-rule="evenodd" clip-rule="evenodd" d="M5 0.89325C5.11786 0.89325 5.23089 0.940068 5.31423 1.02341C5.39756 1.10674 5.44438 1.21977 5.44438 1.33763V11.8188L8.24043 9.02189C8.32388 8.93844 8.43705 8.89157 8.55506 8.89157C8.67306 8.89157 8.78624 8.93844 8.86968 9.02189C8.95312 9.10533 9 9.2185 9 9.33651C9 9.45452 8.95312 9.56769 8.86968 9.65113L5.31462 13.2062C5.27334 13.2476 5.2243 13.2804 5.17032 13.3028C5.11633 13.3252 5.05845 13.3367 5 13.3367C4.94155 13.3367 4.88367 13.3252 4.82968 13.3028C4.7757 13.2804 4.72666 13.2476 4.68538 13.2062L1.13032 9.65113C1.04688 9.56769 1 9.45452 1 9.33651C1 9.2185 1.04688 9.10533 1.13032 9.02189C1.21376 8.93844 1.32694 8.89157 1.44494 8.89157C1.56295 8.89157 1.67612 8.93844 1.75957 9.02189L4.55562 11.8188V1.33763C4.55562 1.21977 4.60244 1.10674 4.68578 1.02341C4.76911 0.940068 4.88214 0.89325 5 0.89325Z" fill="#D1D5DB" stroke="#D1D5DB"/>
</svg>
