<svg width="10" height="14" viewBox="0 0 10 14" fill="none" xmlns="http://www.w3.org/2000/svg">
<path fill-rule="evenodd" clip-rule="evenodd" d="M5 13.3389C4.88214 13.3389 4.76911 13.2921 4.68577 13.2088C4.60244 13.1254 4.55562 13.0124 4.55562 12.8945L4.55562 2.41335L1.75957 5.21029C1.67612 5.29373 1.56295 5.34061 1.44494 5.34061C1.32694 5.34061 1.21376 5.29373 1.13032 5.21029C1.04688 5.12685 1 5.01367 1 4.89567C1 4.77766 1.04688 4.66449 1.13032 4.58105L4.68538 1.02599C4.72666 0.984605 4.7757 0.951772 4.82968 0.929369C4.88367 0.906967 4.94155 0.895435 5 0.895435C5.05845 0.895435 5.11633 0.906967 5.17032 0.929369C5.2243 0.951772 5.27334 0.984605 5.31462 1.02599L8.86968 4.58105C8.95312 4.66449 9 4.77766 9 4.89567C9 5.01367 8.95312 5.12685 8.86968 5.21029C8.78624 5.29373 8.67306 5.34061 8.55506 5.34061C8.43705 5.34061 8.32388 5.29373 8.24043 5.21029L5.44438 2.41335L5.44438 12.8945C5.44438 13.0124 5.39756 13.1254 5.31422 13.2088C5.23089 13.2921 5.11786 13.3389 5 13.3389Z" fill="#D1D5DB" stroke="#D1D5DB"/>
</svg>
